<svg width="1000" height="1000" xmlns="http://www.w3.org/2000/svg" version="1.1">

 <g>
  <title>Layer 1</title>
  <g id="svg_1" fill="none" stroke-width="2">
   <path id="svg_2" d="m558.89,583.91a1.47,1.47 0 0 1 1.14,-0.79q24.52,-2.82 47.95,-11.29q53.92,-19.5 73.36,-71.54c6.43,-17.19 8.88,-37.83 8.18,-55.79c-1.46,-37.36 -10.76,-77.56 -22.6,-112.49q-19.37,-57.09 -43.65,-112.29q-0.35,-0.79 -0.93,-0.15c-31.22,34.54 -63.38,68.25 -91.45,105.58q-20.73,27.58 -32.82,55.9q-23.86,55.92 -4.72,115.12c3.18,9.84 9.11,24.84 12.81,37.41q2.63,8.93 3.4,13.16q12.64,68.94 -2.67,137.29q-10.2,45.55 -29.68,87.52q-0.4,0.87 0.56,0.87l24.12,-0.06q0.44,0 0.61,-0.41q13.63,-33.97 22.4,-69.46c4.08,-16.49 7.29,-34.33 10.83,-51.47q2.52,-12.22 4.55,-19.45q6.99,-24.81 18.61,-47.66" stroke="#90a08c"/>
   <path id="svg_3" d="m401.78,557.17q-14.69,-10.1 -28.38,-25.82q-13.46,-15.44 -20.49,-32.8q-0.2,-0.49 0.3,-0.66q3.74,-1.32 6.24,1.17q25.14,25.09 49.89,43.11c15.14,11.03 38.15,22.32 57.32,35.57" stroke="#b9ccac"/>
   <path id="svg_4" d="m466.66,577.74l18.29,16.13a0.3,0.29 -62.1 0 0 0.48,-0.15c7.98,-30.57 2.64,-61.32 -15.36,-86.9c-21.25,-30.18 -55.41,-44.6 -91.58,-46.55q-33.67,-1.83 -74.94,-2.84q-0.5,-0.01 -0.39,0.48q4.42,19.79 8.8,39.59c6.83,30.79 22.31,67.3 44.27,90.78c25.98,27.76 62.47,40.74 101.03,39.44q14.72,-0.49 34.16,-3.11q0.46,-0.06 0.2,-0.45q-11.89,-17.87 -28.6,-30.99c-10.54,-8.28 -23.28,-15.05 -35.99,-21.47q-11.58,-5.86 -25.25,-14.53" stroke="#90a08c"/>
   <path id="svg_5" d="m466.66,577.74q5.13,-30.42 -10.89,-55.27c-16.71,-25.92 -44.66,-39.88 -75.53,-41.62q-20.77,-1.17 -48.56,-1.66q-0.18,0 -0.35,-0.07q-0.26,-0.11 -0.33,-0.13a0.64,0.64 0 0 0 -0.83,0.71c5.53,36.08 20.62,78.12 49.52,102.01q28.06,23.2 65.7,24.52a0.29,0.28 61 0 0 0.15,-0.53q-23.93,-14.03 -38.1,-37.64q-1.7,-2.84 -5.66,-10.89" stroke="#52784d"/>
   <path id="svg_6" d="m509.97,412.21c-6.93,28.97 -3.81,57.47 5.68,85.44q4.04,11.94 8.03,23.89q10.13,30.38 11.78,62.47a0.12,0.12 0 0 0 0.23,0.04q2.23,-4.99 4.8,-9.84c16.27,-30.61 31.75,-62.09 44.84,-93.8q5.82,-14.12 11.97,-34.42q10.93,-36.04 10.69,-72.62" stroke="#90a08c"/>
   <path id="svg_7" d="m607.99,373.37q1.35,-34.94 -10.38,-68.19a1.61,1.6 -29.3 0 1 0.51,-1.8l13.96,-11.15a0.79,0.78 59.5 0 1 1.22,0.32q8.83,21.4 13.3,44.45" stroke="#52784d"/>
   <path id="svg_8" d="m626.6,337c3.96,28.12 3.79,57.43 -1.69,85.34c-5.9,30.12 -16.24,59 -29.15,86.79q-0.21,0.44 0.25,0.26q9.41,-3.66 16.86,-8.28" stroke="#90a08c"/>
   <path id="svg_9" d="m612.87,501.11c16.8,-8.96 28.35,-19.98 41.45,-31.86a0.79,0.78 -17.4 0 1 1.31,0.68c-1.33,9.96 -4.69,18.76 -10.85,27.11q-22.31,30.18 -59.52,39.81" stroke="#52784d"/>
   <path id="svg_10" d="m585.26,536.85q-2.03,0.24 -3.32,2.84q-6.98,14.05 -9.31,18.94q-0.26,0.54 0.34,0.46q28.48,-3.67 50.61,-18.23q36.73,-24.16 43.27,-68.55" stroke="#90a08c"/>
   <path id="svg_11" d="m666.85,472.31q3.28,-23.32 0.55,-46.56q-4.61,-39.14 -16.43,-76.73q-13.43,-42.73 -30.62,-84.09q-1.63,-3.91 -3.57,-7.69a0.56,0.55 53.1 0 0 -0.9,-0.13c-16.5,17.64 -32.1,36.08 -47.89,54.35q-24.77,28.67 -43.46,61.57q-9.79,17.23 -14.56,39.18" stroke="#52784d"/>
   <path id="svg_12" d="m666.85,472.31l-0.18,-0.71a0.24,0.23 45.6 0 0 -0.46,-0.01c-3.26,12.81 -11.47,23.57 -20.84,33.79q-20.88,22.77 -49.9,30.2q-5.83,1.49 -10.21,1.27" stroke="#b9ccac"/>
   <path id="svg_13" d="m612.87,501.11q5.96,-13.64 11.29,-26.38c14.17,-33.89 18.91,-70.4 11.39,-106.55q-3.34,-16.04 -7.92,-31.71q-0.15,-0.53 -0.61,-0.22q-0.36,0.24 -0.42,0.75" stroke="#b9ccac"/>
   <path id="svg_14" d="m607.99,373.37q-5.29,22.4 -14.42,42.66c-16.18,35.93 -36.32,70.04 -54.9,104.8q-0.26,0.49 -0.64,0.07c-12.71,-14.21 -20.51,-35.08 -24.18,-53.52q-4.82,-24.21 -3.09,-53.13q0.16,-2.74 -0.79,-2.04" stroke="#b9ccac"/>
  </g>
  <path id="svg_16" d="m558.89,583.91q-11.62,22.85 -18.61,47.66q-2.03,7.23 -4.55,19.45c-3.54,17.14 -6.75,34.98 -10.83,51.47q-8.77,35.49 -22.4,69.46q-0.17,0.41 -0.61,0.41l-24.12,0.06q-0.96,0 -0.56,-0.87q19.48,-41.97 29.68,-87.52q15.31,-68.35 2.67,-137.29q-0.77,-4.23 -3.4,-13.16c-3.7,-12.57 -9.63,-27.57 -12.81,-37.41q-19.14,-59.2 4.72,-115.12q12.09,-28.32 32.82,-55.9c28.07,-37.33 60.23,-71.04 91.45,-105.58q0.58,-0.64 0.93,0.15q24.28,55.2 43.65,112.29c11.84,34.93 21.14,75.13 22.6,112.49c0.7,17.96 -1.75,38.6 -8.18,55.79q-19.44,52.04 -73.36,71.54q-23.43,8.47 -47.95,11.29a1.47,1.47 0 0 0 -1.14,0.79zm-48.92,-171.7c-6.93,28.97 -3.81,57.47 5.68,85.44q4.04,11.94 8.03,23.89q10.13,30.38 11.78,62.47a0.12,0.12 0 0 0 0.23,0.04q2.23,-4.99 4.8,-9.84c16.27,-30.61 31.75,-62.09 44.84,-93.8q5.82,-14.12 11.97,-34.42q10.93,-36.04 10.69,-72.62q1.35,-34.94 -10.38,-68.19a1.61,1.6 -29.3 0 1 0.51,-1.8l13.96,-11.15a0.79,0.78 59.5 0 1 1.22,0.32q8.83,21.4 13.3,44.45c3.96,28.12 3.79,57.43 -1.69,85.34c-5.9,30.12 -16.24,59 -29.15,86.79q-0.21,0.44 0.25,0.26q9.41,-3.66 16.86,-8.28c16.8,-8.96 28.35,-19.98 41.45,-31.86a0.79,0.78 -17.4 0 1 1.31,0.68c-1.33,9.96 -4.69,18.76 -10.85,27.11q-22.31,30.18 -59.52,39.81q-2.03,0.24 -3.32,2.84q-6.98,14.05 -9.31,18.94q-0.26,0.54 0.34,0.46q28.48,-3.67 50.61,-18.23q36.73,-24.16 43.27,-68.55q3.28,-23.32 0.55,-46.56q-4.61,-39.14 -16.43,-76.73q-13.43,-42.73 -30.62,-84.09q-1.63,-3.91 -3.57,-7.69a0.56,0.55 53.1 0 0 -0.9,-0.13c-16.5,17.64 -32.1,36.08 -47.89,54.35q-24.77,28.67 -43.46,61.57q-9.79,17.23 -14.56,39.18z" fill="#294c2d"/>
  <path id="svg_17" d="m666.85,472.31l-0.18,-0.71a0.24,0.23 45.6 0 0 -0.46,-0.01c-3.26,12.81 -11.47,23.57 -20.84,33.79q-20.88,22.77 -49.9,30.2q-5.83,1.49 -10.21,1.27q37.21,-9.63 59.52,-39.81c6.16,-8.35 9.52,-17.15 10.85,-27.11a0.79,0.78 -17.4 0 0 -1.31,-0.68c-13.1,11.88 -24.65,22.9 -41.45,31.86q5.96,-13.64 11.29,-26.38c14.17,-33.89 18.91,-70.4 11.39,-106.55q-3.34,-16.04 -7.92,-31.71q-0.15,-0.53 -0.61,-0.22q-0.36,0.24 -0.42,0.75q-4.47,-23.05 -13.3,-44.45a0.79,0.78 59.5 0 0 -1.22,-0.32l-13.96,11.15a1.61,1.6 -29.3 0 0 -0.51,1.8q11.73,33.25 10.38,68.19q-5.29,22.4 -14.42,42.66c-16.18,35.93 -36.32,70.04 -54.9,104.8q-0.26,0.49 -0.64,0.07c-12.71,-14.21 -20.51,-35.08 -24.18,-53.52q-4.82,-24.21 -3.09,-53.13q0.16,-2.74 -0.79,-2.04q4.77,-21.95 14.56,-39.18q18.69,-32.9 43.46,-61.57c15.79,-18.27 31.39,-36.71 47.89,-54.35a0.56,0.55 53.1 0 1 0.9,0.13q1.94,3.78 3.57,7.69q17.19,41.36 30.62,84.09q11.82,37.59 16.43,76.73q2.73,23.24 -0.55,46.56z" fill="#7ba46d"/>
  <path id="svg_18" d="m612.87,501.11q-7.45,4.62 -16.86,8.28q-0.46,0.18 -0.25,-0.26c12.91,-27.79 23.25,-56.67 29.15,-86.79c5.48,-27.91 5.65,-57.22 1.69,-85.34q0.06,-0.51 0.42,-0.75q0.46,-0.31 0.61,0.22q4.58,15.67 7.92,31.71c7.52,36.15 2.78,72.66 -11.39,106.55q-5.33,12.74 -11.29,26.38z" fill="#f6f3ea"/>
  <path id="svg_19" d="m607.99,373.37q0.24,36.58 -10.69,72.62q-6.15,20.3 -11.97,34.42c-13.09,31.71 -28.57,63.19 -44.84,93.8q-2.57,4.85 -4.8,9.84a0.12,0.12 0 0 1 -0.23,-0.04q-1.65,-32.09 -11.78,-62.47q-3.99,-11.95 -8.03,-23.89c-9.49,-27.97 -12.61,-56.47 -5.68,-85.44q0.95,-0.7 0.79,2.04q-1.73,28.92 3.09,53.13c3.67,18.44 11.47,39.31 24.18,53.52q0.38,0.42 0.64,-0.07c18.58,-34.76 38.72,-68.87 54.9,-104.8q9.13,-20.26 14.42,-42.66z" fill="#f6f3ea"/>
  <path id="svg_20" d="m466.66,577.74q5.13,-30.42 -10.89,-55.27c-16.71,-25.92 -44.66,-39.88 -75.53,-41.62q-20.77,-1.17 -48.56,-1.66q-0.18,0 -0.35,-0.07q-0.26,-0.11 -0.33,-0.13a0.64,0.64 0 0 0 -0.83,0.71c5.53,36.08 20.62,78.12 49.52,102.01q28.06,23.2 65.7,24.52a0.29,0.28 61 0 0 0.15,-0.53q-23.93,-14.03 -38.1,-37.64q-1.7,-2.84 -5.66,-10.89q13.67,8.67 25.25,14.53c12.71,6.42 25.45,13.19 35.99,21.47q16.71,13.12 28.6,30.99q0.26,0.39 -0.2,0.45q-19.44,2.62 -34.16,3.11c-38.56,1.3 -75.05,-11.68 -101.03,-39.44c-21.96,-23.48 -37.44,-59.99 -44.27,-90.78q-4.38,-19.8 -8.8,-39.59q-0.11,-0.49 0.39,-0.48q41.27,1.01 74.94,2.84c36.17,1.95 70.33,16.37 91.58,46.55c18,25.58 23.34,56.33 15.36,86.9a0.3,0.29 -62.1 0 1 -0.48,0.15l-18.29,-16.13z" fill="#294c2d"/>
  <path id="svg_21" d="m666.85,472.31q-6.54,44.39 -43.27,68.55q-22.13,14.56 -50.61,18.23q-0.6,0.08 -0.34,-0.46q2.33,-4.89 9.31,-18.94q1.29,-2.6 3.32,-2.84q4.38,0.22 10.21,-1.27q29.02,-7.43 49.9,-30.2c9.37,-10.22 17.58,-20.98 20.84,-33.79a0.24,0.23 45.6 0 1 0.46,0.01l0.18,0.71z" fill="#f6f3ea"/>
  <path id="svg_22" d="m466.66,577.74c-19.17,-13.25 -42.18,-24.54 -57.32,-35.57q-24.75,-18.02 -49.89,-43.11q-2.5,-2.49 -6.24,-1.17q-0.5,0.17 -0.3,0.66q7.03,17.36 20.49,32.8q13.69,15.72 28.38,25.82q3.96,8.05 5.66,10.89q14.17,23.61 38.1,37.64a0.29,0.28 61 0 1 -0.15,0.53q-37.64,-1.32 -65.7,-24.52c-28.9,-23.89 -43.99,-65.93 -49.52,-102.01a0.64,0.64 0 0 1 0.83,-0.71q0.07,0.02 0.33,0.13q0.17,0.07 0.35,0.07q27.79,0.49 48.56,1.66c30.87,1.74 58.82,15.7 75.53,41.62q16.02,24.85 10.89,55.27z" fill="#7ba46d"/>
 </g>
</svg>